<?xml version="1.0" encoding="iso-8859-1"?>
<!-- Uploaded to: SVG Repo, www.svgrepo.com, Generator: SVG Repo Mixer Tools -->
<!DOCTYPE svg PUBLIC "-//W3C//DTD SVG 1.1//EN" "http://www.w3.org/Graphics/SVG/1.1/DTD/svg11.dtd">
<svg fill="#000000" height="800px" width="800px" version="1.1" id="Capa_1" xmlns="http://www.w3.org/2000/svg" xmlns:xlink="http://www.w3.org/1999/xlink" 
	 viewBox="0 0 193.291 193.291" xml:space="preserve">
<g>
	<path d="M187.992,32.878c-1.132-1.19-2.704-1.863-4.346-1.863c-0.047,0-0.093,0-0.139,0c-6.422,0-12.409-2.564-16.869-7.229
		c-4.528-4.735-6.844-10.947-6.521-17.492c0.081-1.641-0.514-3.243-1.647-4.432C157.337,0.673,155.767,0,154.124,0H39.167
		c-1.643,0-3.213,0.673-4.346,1.863c-1.133,1.189-1.728,2.792-1.647,4.432c0.323,6.544-1.993,12.756-6.521,17.492
		c-4.46,4.664-10.447,7.229-16.869,7.229c-0.037,0-0.074,0-0.111,0c-1.7-0.01-3.235,0.667-4.374,1.863
		c-1.14,1.197-1.735,2.811-1.646,4.46C5.72,75.615,20.137,146.654,93.471,192.382c0.972,0.606,2.073,0.909,3.175,0.909
		s2.203-0.303,3.175-0.909c73.334-45.728,87.751-116.768,89.817-155.043C189.727,35.689,189.132,34.075,187.992,32.878z
		 M96.646,180.178C34.115,139.513,19.062,78.827,16.033,42.47c7.321-1.296,14.016-4.871,19.292-10.389
		c5.269-5.509,8.609-12.597,9.582-20.081h103.478c0.973,7.484,4.313,14.572,9.582,20.081c5.277,5.518,11.971,9.094,19.292,10.389
		C174.229,78.827,159.176,139.513,96.646,180.178z"/>
	<path d="M100.757,27.368c-29.329-2.27-55.027,19.746-57.295,49.071c-2.267,29.325,19.746,55.028,49.071,57.295
		c1.393,0.108,2.775,0.161,4.149,0.161c27.563,0,50.986-21.299,53.146-49.232C152.096,55.338,130.083,29.635,100.757,27.368z
		 M137.865,83.738c-1.758,22.728-21.683,39.776-44.406,38.032c-22.728-1.757-39.789-21.678-38.032-44.406
		c1.674-21.65,19.827-38.156,41.19-38.156c1.064,0,2.138,0.041,3.216,0.124C122.561,41.089,139.622,61.01,137.865,83.738z"/>
	<path d="M116.557,63.799L88.14,88.138l-9.812-11.456c-2.156-2.517-5.943-2.81-8.46-0.654c-2.517,2.156-2.81,5.943-0.654,8.46
		L82.929,100.5c1.187,1.386,2.868,2.097,4.56,2.097c1.381,0,2.769-0.474,3.9-1.443l32.974-28.241c2.517-2.156,2.81-5.943,0.654-8.46
		C122.861,61.937,119.074,61.644,116.557,63.799z"/>
</g>
</svg>